<svg xmlns="http://www.w3.org/2000/svg" width="645" height="350" viewBox="0 0 645 350"><g><g><g><path fill="#f2f2f2" d="M8.868 328.863c0-11.547 141.39-20.907 315.806-20.907 174.414 0 315.806 9.36 315.806 20.907 0 11.546-141.392 20.907-315.806 20.907-174.415 0-315.806-9.36-315.806-20.907z"/></g><g><path fill="#2f2e41" d="M312.908 291.45c-35.638 0-54.256-20.908-54.256-81.37 0-53.35 19.38-81.485 55.018-81.485 35.638 0 55.019 18.48 55.019 81.484 0 58.94-20.143 81.372-55.78 81.372zm-.338-191.464c-51.453 0-88.396 33.011-88.396 110.037 0 87.296 36.943 110.404 88.396 110.404 51.454 0 90.597-25.309 90.597-110.404 0-90.964-39.144-110.037-90.597-110.037z"/></g><g><path fill="#00b074" d="M193.363 259.54H172.09v-62.646c0-6.93-5.617-12.546-12.546-12.546h-4.984c-6.93 0-12.546 5.617-12.546 12.546v62.646H82.007a7.162 7.162 0 0 1-6.333-10.509l63.51-120.203a12.546 12.546 0 0 0-5.736-17.206l-3.75-1.77c-6.045-2.856-13.268-.467-16.42 5.43l-77.46 144.9a17.012 17.012 0 0 0-2.008 8.02c0 9.396 7.616 17.013 17.012 17.013h91.19v39.613c0 8.305 6.734 15.038 15.039 15.038 8.306 0 15.038-6.733 15.038-15.038v-39.613h21.274c7.09 0 12.838-5.748 12.838-12.838 0-7.09-5.748-12.838-12.838-12.838z"/></g><g><path fill="#00b074" d="M587.294 259.54H566.02v-62.646c0-6.929-5.616-12.546-12.544-12.546h-4.985c-6.929 0-12.546 5.617-12.546 12.546v62.646h-60.007a7.162 7.162 0 0 1-6.332-10.509l63.51-120.203a12.546 12.546 0 0 0-5.736-17.206l-3.749-1.77c-6.046-2.856-13.269-.467-16.421 5.43l-77.459 144.9a17.011 17.011 0 0 0-2.009 8.02c0 9.396 7.617 17.013 17.012 17.013h91.19v39.613c0 8.305 6.733 15.038 15.039 15.038 8.305 0 15.038-6.733 15.038-15.038v-39.613h21.274c7.09 0 12.838-5.748 12.838-12.838 0-7.09-5.748-12.838-12.839-12.838z"/></g><g><path fill="none" stroke="#3f3d56" stroke-miterlimit="20" d="M199.232 252.204v0h-21.274v0-62.646c0-6.929-5.617-12.546-12.546-12.546h-4.985c-6.928 0-12.545 5.617-12.545 12.546v62.646H87.875a7.162 7.162 0 0 1-6.333-10.508l63.51-120.204a12.546 12.546 0 0 0-5.735-17.206l-3.75-1.77c-6.046-2.855-13.269-.467-16.421 5.43l-77.458 144.9a17.012 17.012 0 0 0-2.01 8.02h0c0 9.396 7.617 17.013 17.013 17.013h91.19v39.613c0 8.306 6.733 15.038 15.038 15.039h0c8.306 0 15.039-6.733 15.039-15.039V277.88v0h21.274c7.09 0 12.837-5.748 12.837-12.838v0c0-7.09-5.747-12.837-12.837-12.837z"/></g><g><path fill="none" stroke="#3f3d56" stroke-miterlimit="20" d="M598.298 252.204v0h-21.274v0-62.646c0-6.929-5.617-12.546-12.546-12.546h-4.984c-6.929 0-12.546 5.617-12.546 12.546v62.646h-60.006a7.162 7.162 0 0 1-6.332-10.508l63.51-120.204a12.546 12.546 0 0 0-5.736-17.206l-3.75-1.77c-6.045-2.855-13.268-.467-16.42 5.43l-77.46 144.9a17.012 17.012 0 0 0-2.009 8.02v0c0 9.396 7.617 17.013 17.012 17.013h91.191v39.613c0 8.306 6.733 15.039 15.039 15.039v0c8.305 0 15.038-6.733 15.038-15.039V277.88v0h21.274c7.09 0 12.838-5.748 12.838-12.838v0c0-7.09-5.748-12.838-12.839-12.837z"/></g><g><path fill="none" stroke="#3f3d56" stroke-miterlimit="20" d="M324.646 284.848c-35.638 0-54.257-20.908-54.257-81.371 0-53.35 19.38-81.484 55.019-81.484 35.637 0 55.018 18.48 55.018 81.484 0 58.94-20.143 81.371-55.78 81.371zm-.339-191.464c-51.453 0-88.396 33.01-88.396 110.037 0 87.296 36.943 110.404 88.396 110.404 51.454 0 90.597-25.309 90.597-110.404 0-90.964-39.143-110.037-90.597-110.037z"/></g><g><path fill="#2f2e41" d="M275.34 10.926a7.724 7.724 0 1 1 15.448 0 7.724 7.724 0 0 1-15.448 0z"/></g><g><path fill="#2f2e41" d="M280.238 28.07c0-15.503 9.7-28.07 21.664-28.07 11.965 0 21.664 12.567 21.664 28.07 0 15.501-9.7 28.068-21.664 28.068-11.965 0-21.664-12.567-21.664-28.069z"/></g><g opacity=".1"><path d="M301.902 47.661c-10.853 0-19.841-10.34-21.418-23.83a36.5 36.5 0 0 0-.246 4.238c0 15.502 9.7 28.07 21.664 28.07 11.965 0 21.664-12.568 21.664-28.07a36.5 36.5 0 0 0-.246-4.239c-1.576 13.492-10.565 23.831-21.418 23.831z"/></g><g><path fill="#3f3d56" d="M345.986 110.27c-.465 1.913-2.471 3.444-4.693 4.514-4.67 2.249-10.432 2.92-16.02 3.145-1.426.087-2.856.06-4.278-.079a12.295 12.295 0 0 1-7.334-3.371 1.006 1.006 0 0 1 .026-1.703c2.976-3.268 7.94-5.272 12.942-6.715 3.792-1.094 10.405-3.928 14.542-3.545 4.006.37 5.403 5.34 4.815 7.755z"/></g><g opacity=".1"><path d="M345.986 110.27c-.465 1.913-2.471 3.444-4.693 4.514-4.67 2.249-10.432 2.92-16.02 3.145-1.426.087-2.856.06-4.278-.079a12.295 12.295 0 0 1-7.334-3.371 1.006 1.006 0 0 1 .026-1.703c2.976-3.268 7.94-5.272 12.942-6.715 3.792-1.094 10.405-3.928 14.542-3.545 4.006.37 5.403 5.34 4.815 7.755z"/></g><g><path fill="#3f3d56" d="M286.598 95.982a11.836 11.836 0 0 0-.718 9.025 15.769 15.769 0 0 0 5.286 7.482c6.044 4.844 14.361 5.51 22.107 5.443 6.787-.059 13.566-.523 20.298-1.39a24.27 24.27 0 0 0 6.586-1.53c2.528-1.094 4.75-3.1 5.65-5.703.9-2.603.26-5.79-1.877-7.528-1.877-1.527-4.467-1.737-6.883-1.882l-13.822-.83c1.365-1.382 3.184-2.164 4.847-3.169 2.206-1.333 3.672-3.57 5.276-5.588a77.228 77.228 0 0 1 8.045-8.272c.45 2.58 2.083 4.7 4.004 6.48 1.921 1.78 4.136 3.214 6.133 4.91 4.836 4.105 8.319 9.678 13.406 13.47a26.24 26.24 0 0 0 9.608-4.797l-1.977-3.58a2.36 2.36 0 0 0-.745-.93c-.56-.345-1.281-.167-1.931-.265-1.737-.26-2.495-2.265-3.177-3.884-1.87-4.443-5.452-7.89-8.512-11.617a58.67 58.67 0 0 1-5.984-8.814c-1.028-1.857-1.968-3.79-3.363-5.39-1.395-1.6-3.349-2.857-5.471-2.862-1.875-.004-3.605.948-5.217 1.906a137.969 137.969 0 0 0-14.147 9.638c-2.361 1.833-4.708 3.77-7.477 4.893-1.166.474-2.395.797-3.514 1.373-1.96 1.008-3.447 2.714-5.048 4.229-5.71 5.402-13.528 8.902-21.383 9.182z"/></g><g><path fill="#fbbebe" d="M315.5 57.533a14.233 14.233 0 0 1-1.038 4.81 6.014 6.014 0 0 1-3.453 3.335 7.409 7.409 0 0 1-3.366.11 6.515 6.515 0 0 1-2.743-.935c-1.296-.89-1.942-2.48-2.178-4.037-.235-1.554-.13-3.142-.28-4.708a25.71 25.71 0 0 0-.72-3.745c-.102-.408-.206-.815-.307-1.222a57.02 57.02 0 0 1-.289-1.22 26.47 26.47 0 0 1-.226-1.154 17.175 17.175 0 0 1-.139-.983 11.027 11.027 0 0 0-.484-2.88 8.748 8.748 0 0 0-1.01-1.71c-.171-.244-.337-.489-.49-.743a3.526 3.526 0 0 1-.582-2.244 1.962 1.962 0 0 1 .14-.494c.344-.093.62-.35.736-.687a2.056 2.056 0 0 0-.089-1.065 6.778 6.778 0 0 0-.574-1.37c-.158-.286-.695-.802-.699-1.13-.008-.659 1.281-1.19 1.803-1.45a10.055 10.055 0 0 1 5.146-1.044c1.14.077 2.376.428 3.005 1.383.565.86.49 1.976.731 2.976a.879.879 0 0 0 .18.398.803.803 0 0 0 .442.203c.279.056.565.067.848.034h.001a2.968 2.968 0 0 0 1.44-.558 7.63 7.63 0 0 1 .734-.158c.944 2.979 1.067 6.172 1.84 9.205.381 1.509.93 2.999 1.007 4.551.006.068.007.138.01.207.01.5-.029 1.002-.008 1.5.007.224.032.447.075.667.085.353.19.702.315 1.043l.005.017a5.15 5.15 0 0 1 .153.573l.002.006c.14.832.16 1.68.062 2.519z"/></g><g><path fill="#fbbebe" d="M291.165 26.939c0-6.139 4.976-11.115 11.114-11.115 6.139 0 11.115 4.976 11.115 11.115 0 6.138-4.976 11.115-11.115 11.115-6.138 0-11.114-4.977-11.114-11.115z"/></g><g><path fill="#fbbebe" d="M372.844 87.497a18.226 18.226 0 0 0-3.135-8.444c.288 1.715.577 3.428.867 5.141a1.924 1.924 0 0 1-2.016-.62 6.19 6.19 0 0 1-1.057-1.96 40.393 40.393 0 0 0-4.915-8.822c-7.075-.59-14.07-3.523-20.292-6.942-6.225-3.418-12.05-7.515-18.19-11.077a26.094 26.094 0 0 0-3.32-1.696c-1.922-.77-4.079-1.17-5.9-2.076a9.662 9.662 0 0 1-.366-.19 7.528 7.528 0 0 1-1.164-.782 6.183 6.183 0 0 1-.558-.512 12.183 12.183 0 0 1-2.13-3.565c-.978-2.162-1.326-4.771-2.302-6.934.448-.42.952-.775 1.497-1.057h.002a7.146 7.146 0 0 1 2.146-.71 6.924 6.924 0 0 1 3.316.254c1.548.524 2.854 1.57 4.155 2.559a68.246 68.246 0 0 1 6.076 4.818c1.073 1.029 2.053 2.16 3.208 3.094.96.74 1.971 1.41 3.027 2.006l18.748 11.165c2.116 1.26 4.233 2.521 6.302 3.855 3.142 2.027 6.171 4.223 9.198 6.418 1.784 1.292 3.568 2.585 5.35 3.879a5.823 5.823 0 0 1 1.517 1.401c.37.63.599 1.33.673 2.056a18.79 18.79 0 0 1-.737 8.74z"/></g><g><path fill="#00b074" d="M318.256 65.89c-.75 3.364-4.148 5.396-5.925 8.35-2.208 3.666-1.307 7.927-.478 12.126l-4.546 3.917c-.836.718-1.673 1.439-2.573 2.074a34.324 34.324 0 0 1-4.107 2.358l-4.024 2.07a19.23 19.23 0 0 1-3.94 1.67c-2.642.678-5.45.203-8.064-.582a3.641 3.641 0 0 1-.881-.36 1.433 1.433 0 0 1-.419-.379 2.34 2.34 0 0 1-.265-1.52c.265-4.4 1.341-8.709 2.413-12.985a51.053 51.053 0 0 1 2.304-7.53 50.926 50.926 0 0 1 3.242-6.077 40.926 40.926 0 0 1 4.747-6.893 11.063 11.063 0 0 0 2.2-2.837c.67-1.526.411-3.276.547-4.938.104-1.248.435-2.467.978-3.596v-.002c.29-.608.64-1.186 1.043-1.725a1270.768 1270.768 0 0 0 .906 2.11 6008.433 6008.433 0 0 1 1.775 4.131 12.927 12.927 0 0 0 1.997 3.558 3.891 3.891 0 0 0 6.66-.51 12.728 12.728 0 0 0 1.36-3.6c.371-1.537.423-3.134.15-4.691-.454-2.999-1.73-6.062-2.656-8.848a8.945 8.945 0 0 1-.646-2.917c.002-.112.013-.224.034-.335.005-.028.01-.058.017-.086a7.15 7.15 0 0 1 1.906-.592l2.45 13.247.06.313c.116.633.235 1.266.367 1.897.118.573.246 1.143.39 1.71l.005.017c.05.192.1.383.153.573l.002.006c.145.52.307 1.036.49 1.544 1.107 3.065 3.039 6.15 2.328 9.333z"/></g><g><path fill="#3f3d56" d="M363.363 113.147a3.94 3.94 0 0 0 .365 1.882c.696 1.271 2.365 1.56 3.81 1.679a112.78 112.78 0 0 0 25.303-.771 2.925 2.925 0 0 0 1.288-.4c1.191-.835.457-2.87-.844-3.522-1.3-.652-2.844-.495-4.272-.777a13.458 13.458 0 0 1-3.998-1.734 202.816 202.816 0 0 1-8.557-5.201c-1.673-1.075-3.647-2.221-5.531-1.584-5.104 1.727-7.597 4.922-7.564 10.428z"/></g><g><path fill="#fbbebe" d="M301.17 49.684v.002c-.014.08-.027.157-.044.234-.02.128-.045.258-.07.386a46.523 46.523 0 0 1-.85 3.57c-.903 3.268-2.115 6.484-3.317 9.653-3.225 8.496-6.45 16.993-9.677 25.49-.814 2.14-1.626 4.282-2.55 6.379-.31.699-.628 1.403-.944 2.115-1.135 2.549-2.223 5.18-2.585 7.893a16.434 16.434 0 0 0-.115 5.413c.362 1.778 1.441 3.515 3.131 4.172.825.323 2.006.754 1.78 1.611-.122.471-.657.7-1.138.78a4.378 4.378 0 0 1-3.571-1.029c-.903-.8-1.596-2.045-2.796-2.18-.83-.09-1.596.408-2.357.756-3.104 1.419-6.721.426-9.982-.582.256-1.32 1.582-2.19 2.9-2.454 1.316-.266 2.678-.078 4.021-.113.43.022.857-.087 1.223-.315.327-.301.557-.693.659-1.127a47.278 47.278 0 0 0 1.923-7.87c.434-2.794.615-5.631 1.232-8.39.48-2.154 1.223-4.24 1.86-6.353a134.512 134.512 0 0 0 3.029-13.217 46.71 46.71 0 0 0 .853-5.608c.108-1.564.057-3.135.208-4.693a36.457 36.457 0 0 1 1.264-5.985l1.727-6.4c.853-3.155 1.769-6.433 3.932-8.885a8.358 8.358 0 0 1 6.003-2.868c.43 0 .857.046 1.276.138.07.017.14.034.209.053.456.12.894.3 1.302.539.666-.424 1.006-.276 1.448.378.388.692.571 1.48.528 2.272.037 2.09-.135 4.18-.513 6.235z"/></g><g><path fill="#00b074" d="M301.902 52.182l-.028.028-.153.153-1.514 1.513-.743-3.118-2.545-10.689c.43 0 .857.046 1.276.138.018-.123.048-.243.088-.36l.12.412.864 2.935 1.633 5.573.27.917v.002z"/></g><g><path fill="#2f2e41" d="M311.513 18.082a7.532 7.532 0 0 1-3.03 6.03 7.5 7.5 0 0 1-4.51 1.511h-9.038a7.538 7.538 0 0 1 0-15.075h9.037a7.561 7.561 0 0 1 7.541 7.534z"/></g><g><path fill="#2f2e41" d="M312.263 10.926a7.724 7.724 0 1 1 15.448 0 7.724 7.724 0 0 1-15.448 0z"/></g><g opacity=".1"><path d="M319.799 3.203c-.095 0-.189.003-.283.007a7.722 7.722 0 0 1 0 15.433c.094.003.188.007.283.007a7.724 7.724 0 1 0 0-15.447z"/></g><g opacity=".1"><path d="M283.064 3.203c.095 0 .189.003.283.007a7.722 7.722 0 0 0 0 15.433c-.094.003-.188.007-.283.007a7.724 7.724 0 1 1 0-15.447z"/></g><g opacity=".1"><path d="M308.484 24.112a7.5 7.5 0 0 1-4.511 1.51h-9.038a7.5 7.5 0 0 1-4.512-1.51z"/></g><g><path fill="#fbbebe" d="M366.847 80.077s1.947 5.61 3.729 4.117l-1.42-7.333z"/></g><g><path fill="#57b894" d="M603.794 251.178a12.46 12.46 0 1 0 1.66-23.897l.311 6.413-3.034-5.496a12.413 12.413 0 0 0-6.396 7.018 12.458 12.458 0 0 0 7.46 15.961z"/></g><g><path fill="none" stroke="#3f3d56" stroke-miterlimit="20" d="M618.809 325.56c-1.071-5.454 3.57-10.289 8.155-13.432 4.584-3.143 9.94-6.23 11.505-11.564 2.248-7.666-4.448-14.686-9.66-20.74a75.015 75.015 0 0 1-9.893-14.702c-1.084-2.115-2.08-4.326-2.366-6.685-.41-3.398.681-6.78 1.78-10.02a724.619 724.619 0 0 1 11.752-32.12"/></g><g><path fill="none" stroke="#3f3d56" stroke-miterlimit="20" d="M604.303 249.527a12.46 12.46 0 1 0 1.66-23.897l.311 6.413v0l-3.034-5.496a12.413 12.413 0 0 0-6.396 7.018 12.458 12.458 0 0 0 7.46 15.961z"/></g><g><path fill="#57b894" d="M617.282 214.083a12.446 12.446 0 0 1 8.969-7.902l1.025 6.097 1.902-6.403a12.459 12.459 0 1 1-11.896 8.208z"/></g><g><path fill="none" stroke="#3f3d56" stroke-miterlimit="20" d="M617.965 211.88a12.446 12.446 0 0 1 8.968-7.9l1.026 6.096v0l1.902-6.403a12.459 12.459 0 1 1-11.896 8.208z"/></g><g><path fill="#57b894" d="M626.616 279.948a12.459 12.459 0 0 0 11.027-22.165l-1.461 4.92-1.037-6.168a.23.23 0 0 0-.031-.012c-6.47-2.347-13.615.995-15.962 7.463-2.346 6.469.995 13.615 7.464 15.962z"/></g><g><path fill="none" stroke="#3f3d56" stroke-miterlimit="20" d="M627.214 277.717a12.459 12.459 0 0 0 11.028-22.165l-1.462 4.921v0l-1.036-6.169a.206.206 0 0 0-.032-.012c-6.469-2.346-13.615.995-15.961 7.464-2.347 6.469.995 13.615 7.463 15.961z"/></g><g><path fill="#57b894" d="M613.648 300.64a12.453 12.453 0 1 0 2.401-9.758l5.552 8.356-7.585-4.435a12.344 12.344 0 0 0-.368 5.836z"/></g><g><path fill="none" stroke="#3f3d56" stroke-miterlimit="20" d="M614.157 298.989a12.453 12.453 0 1 0 2.401-9.757l5.552 8.355v0l-7.586-4.435a12.344 12.344 0 0 0-.367 5.837z"/></g><g><path fill="#57b894" d="M6.392 281.53a8.187 8.187 0 1 0 1.09-15.7l.205 4.213-1.994-3.61a8.155 8.155 0 0 0-4.202 4.61 8.185 8.185 0 0 0 4.9 10.487z"/></g><g><path fill="none" stroke="#3f3d56" stroke-miterlimit="20" d="M16.256 330.4c-.704-3.583 2.346-6.76 5.358-8.824 3.012-2.065 6.531-4.094 7.559-7.599 1.477-5.036-2.923-9.648-6.347-13.626a49.288 49.288 0 0 1-6.5-9.659 13.298 13.298 0 0 1-1.554-4.392c-.27-2.233.447-4.454 1.17-6.583a476.039 476.039 0 0 1 7.72-21.104"/></g><g><path fill="none" stroke="#3f3d56" stroke-miterlimit="20" d="M6.729 280.445a8.186 8.186 0 1 0 1.09-15.7l.205 4.214v0l-1.993-3.611a8.155 8.155 0 0 0-4.203 4.611 8.185 8.185 0 0 0 4.9 10.487z"/></g><g><path fill="#57b894" d="M15.255 257.158a8.177 8.177 0 0 1 5.893-5.191l.674 4.005 1.25-4.207a8.186 8.186 0 1 1-7.817 5.393z"/></g><g><path fill="none" stroke="#3f3d56" stroke-miterlimit="20" d="M15.705 255.712a8.177 8.177 0 0 1 5.892-5.192l.674 4.006v0l1.25-4.207a8.186 8.186 0 1 1-7.816 5.393z"/></g><g><path fill="#57b894" d="M21.389 300.433a8.186 8.186 0 0 0 7.245-14.563l-.96 3.233-.681-4.053a8.186 8.186 0 1 0-5.604 15.383z"/></g><g><path fill="none" stroke="#3f3d56" stroke-miterlimit="20" d="M21.778 298.968a8.186 8.186 0 0 0 7.245-14.563l-.96 3.233v0l-.68-4.053a8.186 8.186 0 1 0-5.604 15.383z"/></g><g><path fill="#57b894" d="M12.866 314.028a8.182 8.182 0 1 0 1.578-6.411l3.647 5.49-4.983-2.914a8.11 8.11 0 0 0-.242 3.835z"/></g><g><path fill="none" stroke="#3f3d56" stroke-miterlimit="20" d="M13.203 312.943a8.182 8.182 0 1 0 1.578-6.41l3.647 5.489v0l-4.983-2.914a8.109 8.109 0 0 0-.242 3.835z"/></g><g><path fill="#2f2e41" d="M278.756 191.05c0-7.274 4.557-13.171 10.178-13.171s10.178 5.897 10.178 13.17c0 7.275-4.557 13.172-10.178 13.172-5.62 0-10.178-5.897-10.178-13.171z"/></g><g><path fill="#2f2e41" d="M334.135 191.35c0-7.275 4.556-13.172 10.177-13.172 5.621 0 10.178 5.897 10.178 13.171 0 7.274-4.557 13.171-10.178 13.171-5.62 0-10.177-5.897-10.177-13.17z"/></g><g><path fill="#2f2e41" d="M336.53 230.263c0 5.951-8.31 10.777-18.56 10.777-10.25 0-18.559-4.826-18.559-10.777 0-5.154 6.232-9.465 14.56-10.519a30 30 0 0 1 4-.257c2.24-.007 4.475.234 6.663.718 6.956 1.551 11.895 5.472 11.895 10.058z"/></g><g><path fill="none" stroke="#3f3d56" stroke-miterlimit="20" d="M281.151 188.056c0-7.274 4.557-13.17 10.178-13.17 5.62 0 10.177 5.896 10.177 13.17s-4.556 13.171-10.177 13.171c-5.621 0-10.178-5.897-10.178-13.17z"/></g><g><path fill="none" stroke="#3f3d56" stroke-miterlimit="20" d="M336.53 188.356c0-7.275 4.556-13.171 10.177-13.171 5.621 0 10.178 5.896 10.178 13.17 0 7.275-4.557 13.172-10.178 13.172-5.62 0-10.178-5.897-10.178-13.171z"/></g><g><path fill="none" stroke="#3f3d56" stroke-miterlimit="20" d="M301.806 227.27c0-5.951 8.309-10.776 18.559-10.776 10.25 0 18.56 4.825 18.56 10.776 0 5.952-8.31 10.776-18.56 10.776-10.25 0-18.56-4.824-18.56-10.776z"/></g><g><path fill="#fff" d="M324.855 221.103a2.955 2.955 0 0 1-.79 2.031c-.49.534-1.18.84-1.904.843h-5.987a2.792 2.792 0 0 1-2.694-2.874 2.937 2.937 0 0 1 .491-1.64 28.17 28.17 0 0 1 4-.275c2.243-.008 4.48.25 6.663.766.147.365.223.755.221 1.15z"/></g><g><path fill="#fff" d="M288.335 184.464a2.993 2.993 0 1 1 5.987 0 2.993 2.993 0 0 1-5.987 0z"/></g><g><path fill="#fff" d="M344.013 184.464a2.993 2.993 0 1 1 5.987 0 2.993 2.993 0 0 1-5.987 0z"/></g><g opacity=".3"><path fill="#00b074" d="M347.006 212.602a2.993 2.993 0 1 1 5.987 0 2.993 2.993 0 0 1-5.987 0z"/></g><g opacity=".3"><path fill="#00b074" d="M273.967 212.602a2.993 2.993 0 1 1 5.987 0 2.993 2.993 0 0 1-5.987 0z"/></g></g></g></svg>