<svg xmlns="http://www.w3.org/2000/svg" width="38" height="36" viewBox="0 0 38 36"><g><g><path fill="#fff" d="M17.767 15.107l-.152.143a1.68 1.68 0 0 1-2.315-.143l-.136-.16a1.91 1.91 0 0 1 .136-2.439l5.551-5.846.267-.268c3.154-3.025 8.023-2.845 10.967.405 2.945 3.25 2.887 8.381-.13 11.556l-1.236 1.297-7.4-7.794a1.683 1.683 0 0 0-2.468 0zM6.046 6.662l.269-.269c2.853-2.734 7.169-2.88 10.183-.347L12.831 9.91c-2.044 2.154-2.043 5.644.002 7.797 2.045 2.152 5.359 2.151 7.403-.002l1.849-1.948 6.167 6.495L19 31.998 6.046 18.355l-.255-.283c-2.82-3.265-2.709-8.288.255-11.41zM3.579 4.064C-.611 8.476-.87 15.542 2.986 20.28l13.546 14.315.191.186c1.385 1.254 3.453 1.172 4.744-.188l13.548-14.313c3.858-4.743 3.594-11.816-.605-16.226-4.198-4.41-10.914-4.67-15.408-.594-4.498-4.083-11.225-3.82-15.423.603z"/></g></g></svg>