<svg xmlns="http://www.w3.org/2000/svg" width="38" height="38" viewBox="0 0 38 38"><g><g><path fill="#fff" d="M15.545 19a3.455 3.455 0 1 0 6.91 0 3.455 3.455 0 0 0-6.91 0zm13.819 0c0 5.724-4.64 10.364-10.364 10.364-5.724 0-10.364-4.64-10.364-10.364 0-5.724 4.64-10.364 10.364-10.364 5.724 0 10.364 4.64 10.364 10.364zM17.273 0v5.289A13.825 13.825 0 0 0 5.289 17.273H0v3.454l5.289.002a13.825 13.825 0 0 0 11.984 11.982V38h3.454l.002-5.289A13.825 13.825 0 0 0 32.711 20.73L38 20.727v-3.454h-5.289A13.825 13.825 0 0 0 20.73 5.289L20.727 0z"/></g></g></svg>