<svg xmlns="http://www.w3.org/2000/svg" width="144" height="144" viewBox="0 0 144 144"><defs><clipPath id="qgqfa"><path fill="#fff" d="M10 144c-5.523 0-10-4.477-10-10V10C0 4.477 4.477 0 10 0h124c5.523 0 10 4.477 10 10v124c0 5.523-4.477 10-10 10z"/></clipPath></defs><g><g><path fill="#f4f5f8" d="M10 144c-5.523 0-10-4.477-10-10V10C0 4.477 4.477 0 10 0h124c5.523 0 10 4.477 10 10v124c0 5.523-4.477 10-10 10z"/><path fill="none" stroke="#6b6e6f" stroke-dasharray="0 8" stroke-linecap="round" stroke-linejoin="round" stroke-miterlimit="20" stroke-width="6" d="M10 144c-5.523 0-10-4.477-10-10V10C0 4.477 4.477 0 10 0h124c5.523 0 10 4.477 10 10v124c0 5.523-4.477 10-10 10z" clip-path="url(&quot;#qgqfa&quot;)"/></g></g></svg>