<svg xmlns="http://www.w3.org/2000/svg" width="28" height="36" viewBox="0 0 28 36"><g><g><path fill="#fff" d="M14 17.333a6.665 6.665 0 0 0 6.667-6.666A6.665 6.665 0 0 0 14 4a6.665 6.665 0 0 0-6.667 6.667A6.665 6.665 0 0 0 14 17.333zm0 3.334c-5.525 0-10-4.475-10-10s4.475-10 10-10 10 4.475 10 10-4.475 10-10 10zm-1.667 11.666v-6.528a10.015 10.015 0 0 0-7.765 6.528zm3.334-6.528v6.528h7.765a10.015 10.015 0 0 0-7.765-6.528zm-15 9.862c0-7.364 5.97-13.334 13.333-13.334 7.364 0 13.333 5.97 13.333 13.334z"/></g></g></svg>